<?xml version="1.0" encoding="UTF-8" standalone="no"?>
<!-- Created with Inkscape (http://www.inkscape.org/) -->

<svg
   xmlns:dc="http://purl.org/dc/elements/1.1/"
   xmlns:cc="http://creativecommons.org/ns#"
   xmlns:rdf="http://www.w3.org/1999/02/22-rdf-syntax-ns#"
   xmlns:svg="http://www.w3.org/2000/svg"
   xmlns="http://www.w3.org/2000/svg"
   xmlns:sodipodi="http://sodipodi.sourceforge.net/DTD/sodipodi-0.dtd"
   xmlns:inkscape="http://www.inkscape.org/namespaces/inkscape"
   width="66.863792mm"
   height="66.863792mm"
   viewBox="0 0 66.863793 66.863793"
   version="1.1"
   id="svg8"
   inkscape:version="0.92.4 5da689c313, 2019-01-14"
   sodipodi:docname="logo.svg"
   inkscape:export-filename="/home/norbert/Projects/cpp/libraries/nglibs/cpp-soaplib-git/docs/images/logo64.png"
   inkscape:export-xdpi="24.312111"
   inkscape:export-ydpi="24.312111">
  <defs
     id="defs2" />
  <sodipodi:namedview
     id="base"
     pagecolor="#ffffff"
     bordercolor="#666666"
     borderopacity="1.0"
     inkscape:pageopacity="0.0"
     inkscape:pageshadow="2"
     inkscape:zoom="1.979899"
     inkscape:cx="-17.512126"
     inkscape:cy="171.25475"
     inkscape:document-units="mm"
     inkscape:current-layer="layer1"
     showgrid="false"
     fit-margin-top="0"
     fit-margin-left="0"
     fit-margin-right="0"
     fit-margin-bottom="0"
     inkscape:window-width="1920"
     inkscape:window-height="1023"
     inkscape:window-x="0"
     inkscape:window-y="0"
     inkscape:window-maximized="1" />
  <metadata
     id="metadata5">
    <rdf:RDF>
      <cc:Work
         rdf:about="">
        <dc:format>image/svg+xml</dc:format>
        <dc:type
           rdf:resource="http://purl.org/dc/dcmitype/StillImage" />
        <dc:title></dc:title>
      </cc:Work>
    </rdf:RDF>
  </metadata>
  <g
     inkscape:label="Layer 1"
     inkscape:groupmode="layer"
     id="layer1"
     transform="translate(-38.969475,-132.10281)">
    <rect
       style="opacity:1;fill:#f2f2f2;fill-opacity:1;paint-order:stroke fill markers;stroke:none;stroke-opacity:1"
       id="rect815"
       width="66.863792"
       height="66.863792"
       x="38.969475"
       y="132.10281"
       ry="7.2068763" />
    <g
       id="g4557"
       transform="translate(2.23021,0.32412116)">
      <path
         sodipodi:nodetypes="cscccscsc"
         style="fill:#5a2ca0;stroke-width:1"
         d="m 56.44712,187.45995 c -0.50712,-0.50712 -0.52917,-0.88194 -0.52917,-8.99583 v -8.46667 h 14.2875 14.2875 v 8.46667 c 0,8.11389 -0.022,8.48871 -0.52917,8.99583 -0.51505,0.51506 -0.88194,0.52917 -13.75833,0.52917 -12.87639,0 -13.24328,-0.0141 -13.75833,-0.52917 z"
         id="path4535"
         inkscape:connector-curvature="0" />
      <path
         style="fill:#262626;stroke-width:1"
         d="m 55.34142,194.24753 c -2.36621,-0.64897 -4.30331,-2.32548 -5.38293,-4.65878 -0.54198,-1.17134 -0.55712,-1.54925 -0.55712,-13.90406 v -12.7 l 0.6335,-1.7194 c 1.44962,-3.93444 3.7815,-6.26455 7.70127,-7.69542 1.43113,-0.52241 2.22954,-0.62862 4.76211,-0.6335 l 3.0427,-0.006 v 1.71979 1.7198 l -3.0427,0.13229 c -2.64006,0.11478 -3.24238,0.23034 -4.55153,0.87322 -1.88918,0.92771 -3.71175,2.91812 -4.43009,4.83804 -0.51896,1.38706 -0.54319,1.98999 -0.53903,13.4148 0.004,11.92001 0.007,11.96621 0.6007,13.01542 0.33438,0.59037 1.05892,1.31492 1.6493,1.64929 l 1.05294,0.59635 h 13.89062 13.89063 l 1.05294,-0.59635 c 0.59037,-0.33437 1.31492,-1.05892 1.64929,-1.64929 0.59424,-1.04921 0.59637,-1.09541 0.60071,-13.01542 0.004,-11.42481 -0.0201,-12.02774 -0.53904,-13.4148 -0.71834,-1.91992 -2.5409,-3.91033 -4.43009,-4.83804 -1.30915,-0.64288 -1.91146,-0.75844 -4.55152,-0.87322 l -3.04271,-0.13229 v -1.7198 -1.71979 l 3.04271,0.006 c 2.53257,0.005 3.33098,0.11109 4.7621,0.6335 3.91978,1.43087 6.25166,3.76098 7.70127,7.69542 l 0.6335,1.7194 v 12.7 c 0,12.41413 -0.0127,12.72753 -0.5655,13.92301 -0.81169,1.75544 -2.29753,3.27995 -4.02223,4.12692 l -1.49768,0.73548 -14.15521,0.0538 c -10.63392,0.0404 -14.45465,-0.0283 -15.35891,-0.27635 z m 13.10729,-27.47982 c -0.0705,-0.18889 -0.15821,-3.97485 -0.19501,-8.41323 l -0.0669,-8.06979 -3.04271,-0.13229 -3.04271,-0.1323 v -5.73585 c 0,-5.3807 0.0338,-5.78106 0.54552,-6.46594 1.28824,-1.72412 1.59204,-1.81298 6.53122,-1.91032 2.48923,-0.0491 5.0457,-0.0113 5.68104,0.084 1.47526,0.22123 2.82887,1.38816 3.31849,2.86082 l 0.37008,1.1131 2.82134,0.1454 c 2.26276,0.11662 2.96252,0.25081 3.53443,0.67781 1.32019,0.98565 1.73736,1.79851 1.77188,3.45247 l 0.0322,1.54515 H 84.98779 83.268 l -0.1323,-0.92604 -0.13229,-0.92604 H 80.75445 78.5055 l -0.1323,3.0427 -0.13229,3.04271 -3.0427,0.13229 -3.04271,0.1323 -0.13229,8.33437 -0.1323,8.33438 -1.65707,0.0789 c -1.17505,0.0559 -1.69433,-0.021 -1.78517,-0.26459 z"
         id="path4531"
         inkscape:connector-curvature="0" />
    </g>
  </g>
</svg>
